<?xml version="1.0" standalone="no"?>
<!DOCTYPE svg PUBLIC "-//W3C//DTD SVG 20010904//EN"
 "http://www.w3.org/TR/2001/REC-SVG-20010904/DTD/svg10.dtd">
<svg version="1.0" xmlns="http://www.w3.org/2000/svg"
 width="520.000000pt" height="520.000000pt" viewBox="0 0 520.000000 520.000000"
 preserveAspectRatio="xMidYMid meet">
<metadata>
Created by potrace 1.14, written by Peter Selinger 2001-2017
</metadata>
<g transform="translate(0.000000,520.000000) scale(0.100000,-0.100000)"
fill="#000000" stroke="none">
<path d="M295 5191 c-109 -27 -207 -107 -258 -210 l-32 -66 0 -2315 0 -2315
32 -66 c39 -79 111 -150 191 -187 l57 -27 2315 0 2315 0 66 32 c79 39 150 111
187 191 l27 57 0 2315 0 2315 -27 57 c-37 80 -108 152 -187 191 l-66 32 -2295
1 c-1262 1 -2308 -1 -2325 -5z"/>
</g>
</svg>
