<svg width="84" height="59" viewBox="0 0 84 59" fill="none" xmlns="http://www.w3.org/2000/svg">
<mask id="path-1-inside-1_1_46" fill="white">
<path fill-rule="evenodd" clip-rule="evenodd" d="M64.5 59H29.5H29.0021C29.0009 59 29 58.9991 29 58.9979V58.9979C29 58.9968 28.9991 58.9958 28.9979 58.9958C12.9371 58.7278 0 45.6247 0 29.5C0 13.2076 13.2076 0 29.5 0C42.5279 0 53.5834 8.44511 57.4907 20.1596C57.6735 20.7076 58.2688 21.0077 58.8216 20.8397C60.6183 20.2937 62.5248 20 64.5 20C75.2696 20 84 28.7304 84 39.5C84 50.1013 75.5402 58.7268 65.0031 58.9936C65.0014 58.9937 65 58.9951 65 58.9968V58.9968C65 58.9986 64.9986 59 64.9968 59H64.5Z"/>
</mask>
<path d="M65.0031 58.9936L65.155 64.9917L65.0031 58.9936ZM57.4907 20.1596L51.799 22.058L57.4907 20.1596ZM58.8216 20.8397L57.0769 15.099L58.8216 20.8397ZM28.9979 58.9958L28.8978 64.995L28.8978 64.995L28.9979 58.9958ZM64.5 53H29.5V65H64.5V53ZM29.5 53H29.0021V65H29.5V53ZM29.098 52.9967C16.306 52.7832 6 42.3445 6 29.5H-6C-6 48.9049 9.56829 64.6724 28.8978 64.995L29.098 52.9967ZM6 29.5C6 16.5213 16.5213 6 29.5 6V-6C9.89389 -6 -6 9.89389 -6 29.5H6ZM29.5 6C39.8689 6 48.6841 12.7194 51.799 22.058L63.1824 18.2611C58.4827 4.17085 45.1869 -6 29.5 -6V6ZM60.5663 26.5804C61.8036 26.2044 63.1225 26 64.5 26V14C61.9272 14 59.433 14.3829 57.0769 15.099L60.5663 26.5804ZM64.5 26C71.9558 26 78 32.0442 78 39.5H90C90 25.4167 78.5833 14 64.5 14V26ZM78 39.5C78 46.8385 72.1431 52.8109 64.8512 52.9956L65.155 64.9917C78.9372 64.6427 90 53.3642 90 39.5H78ZM64.9968 53H64.5V65H64.9968V53ZM59 58.9968C59 55.6849 61.6849 53 64.9968 53V65C68.3123 65 71 62.3123 71 58.9968H59ZM64.8512 52.9956C61.6352 53.077 59 55.7015 59 58.9968H71C71 62.2887 68.3676 64.9104 65.155 64.9917L64.8512 52.9956ZM51.799 22.058C53.0321 25.7552 56.9694 27.6736 60.5663 26.5804L57.0769 15.099C59.5682 14.3418 62.3149 15.66 63.1824 18.2611L51.799 22.058ZM35 58.9979C35 55.6795 32.3307 53.0506 29.098 52.9967L28.8978 64.995C25.6675 64.9411 23 62.314 23 58.9979H35ZM29.0021 53C32.3146 53 35 55.6853 35 58.9979H23C23 62.3128 25.6873 65 29.0021 65V53Z" fill="black" mask="url(#path-1-inside-1_1_46)"/>
</svg>
