<svg width="84" height="83" viewBox="0 0 84 83" fill="none" xmlns="http://www.w3.org/2000/svg">
<path fill-rule="evenodd" clip-rule="evenodd" d="M29.5 53H34.5126C34.3244 53.8294 34.4361 54.7291 34.8949 55.5237L36.9019 59H32.9848L31.7713 56.8981C30.8048 55.2241 28.6642 54.6505 26.9902 55.617C25.854 56.273 25.2247 57.4699 25.2399 58.6947C10.9662 56.6301 0 44.3457 0 29.5C0 13.2076 13.2076 0 29.5 0C42.5279 0 53.5834 8.44511 57.4907 20.1596C57.6735 20.7076 58.2688 21.0077 58.8216 20.8397C60.6183 20.2937 62.5248 20 64.5 20C75.2696 20 84 28.7304 84 39.5C84 48.912 77.3318 56.7666 68.462 58.5972C68.4008 58.1669 68.2578 57.7408 68.0271 57.3412L65.4998 52.9637C72.4873 52.4534 78 46.6196 78 39.5C78 32.0442 71.9558 26 64.5 26C63.1225 26 61.8036 26.2044 60.5662 26.5804C56.9694 27.6736 53.0321 25.7552 51.799 22.058C48.6841 12.7194 39.8689 6 29.5 6C16.5213 6 6 16.5213 6 29.5C6 39.2824 11.9778 47.6693 20.4789 51.2065C21.3223 52.171 22.6276 52.5896 23.8607 52.3193C25.5425 52.7335 27.2956 52.9666 29.098 52.9967L29.1427 52.9976L29.1779 52.9985L29.2223 53H29.5ZM58.8949 55.5237L60.9019 59H56.9848L55.7713 56.8981C54.8048 55.2241 52.6642 54.6505 50.9902 55.617C49.7597 56.3275 49.1237 57.6724 49.2571 59H44.4955C44.4813 58.4349 44.3297 57.8652 44.0271 57.3412L41.5207 53H58.5126C58.3244 53.8294 58.4361 54.7291 58.8949 55.5237Z" fill="black"/>
<line x1="35.2719" y1="45.2485" x2="55.1922" y2="79.7515" stroke="black" stroke-width="4" stroke-linecap="round" stroke-dasharray="6 6"/>
<line x1="23.2719" y1="45.2485" x2="43.1922" y2="79.7515" stroke="black" stroke-width="4" stroke-linecap="round" stroke-dasharray="7 11"/>
<line x1="59.2719" y1="45.2485" x2="79.1922" y2="79.7515" stroke="black" stroke-width="4" stroke-linecap="round" stroke-dasharray="6 6"/>
<line x1="47.2719" y1="45.2485" x2="67.1922" y2="79.7515" stroke="black" stroke-width="4" stroke-linecap="round" stroke-dasharray="7 11"/>
</svg>
