<svg width="84" height="82" viewBox="0 0 84 82" fill="none" xmlns="http://www.w3.org/2000/svg">
<path fill-rule="evenodd" clip-rule="evenodd" d="M30.6299 53H37.3881C36.7943 54.3963 36.8409 56.045 37.658 57.4602L38.2623 58.5069C38.362 58.6795 38.4704 58.844 38.5867 59H30.5992C31.7581 57.4471 31.9529 55.2914 30.9226 53.5069L30.6299 53ZM54.3881 53H46.6299L46.9226 53.5069C47.9529 55.2914 47.7581 57.4471 46.5992 59H55.5867C55.4704 58.844 55.362 58.6795 55.2623 58.5069L54.658 57.4602C53.8409 56.045 53.7943 54.3963 54.3881 53ZM63.6299 53H64.5H64.7265C64.768 52.9981 64.8096 52.9966 64.8512 52.9956C72.1431 52.8109 78 46.8385 78 39.5C78 32.0442 71.9558 26 64.5 26C63.1225 26 61.8036 26.2044 60.5662 26.5804C56.9694 27.6736 53.0321 25.7552 51.799 22.058C48.6841 12.7194 39.8689 6 29.5 6C16.5213 6 6 16.5213 6 29.5C6 39.8939 12.7485 48.7123 22.1019 51.8121C20.837 53.3742 20.593 55.6155 21.658 57.4602L21.9902 58.0356C9.3351 54.7141 0 43.1972 0 29.5C0 13.2076 13.2076 0 29.5 0C42.5279 0 53.5834 8.44511 57.4907 20.1596C57.6735 20.7076 58.2688 21.0077 58.8216 20.8397C60.6183 20.2937 62.5248 20 64.5 20C75.2696 20 84 28.7304 84 39.5C84 50.1013 75.5402 58.7268 65.0031 58.9936C65.0014 58.9937 65 58.9951 65 58.9968C65 58.9986 64.9986 59 64.9968 59H64.5H63.5992C64.7581 57.4471 64.9529 55.2914 63.9226 53.5069L63.6299 53Z" fill="black"/>
<line x1="22.7811" y1="45.2811" x2="41.2014" y2="77.186" stroke="black" stroke-width="7" stroke-linecap="round" stroke-dasharray="1 13"/>
<line x1="38.7811" y1="45.2811" x2="57.2014" y2="77.186" stroke="black" stroke-width="7" stroke-linecap="round" stroke-dasharray="1 13"/>
<line x1="55.7811" y1="45.2811" x2="74.2014" y2="77.186" stroke="black" stroke-width="7" stroke-linecap="round" stroke-dasharray="1 13"/>
</svg>
