<svg width="84" height="84" viewBox="0 0 84 84" fill="none" xmlns="http://www.w3.org/2000/svg">
<path fill-rule="evenodd" clip-rule="evenodd" d="M62.781 53H64.5H64.7265C64.768 52.9981 64.8096 52.9966 64.8512 52.9956C65.065 52.9901 65.2776 52.9798 65.4888 52.9645C65.2668 53.7234 65.3433 54.5684 65.7699 55.3072L67.7466 58.7309C67.0183 58.853 66.2762 58.9347 65.5229 58.9736L62.781 53ZM45.0399 53H56.1791L58.5549 58.1759L58.6963 58.4841L58.9331 59H47.7938L47.0266 57.3284L46.8851 57.0203L46.4169 56L46.2754 55.6918L45.0399 53ZM38.4423 53H31.763C31.8359 53.097 31.9039 53.1994 31.9661 53.3072L35.1195 58.7691C35.1633 58.845 35.2035 58.922 35.24 59H39.6123C39.9515 58.6422 40.3336 58.3213 40.7546 58.0472L38.5351 53.2115C38.5028 53.1411 38.4719 53.0706 38.4423 53ZM78 39.5C78 44.8269 74.9139 49.434 70.4331 51.6301C70.6376 51.8242 70.8179 52.0506 70.9661 52.3072L73.5476 56.7785C79.7613 53.5181 84 47.004 84 39.5C84 28.7304 75.2696 20 64.5 20C62.5248 20 60.6183 20.2937 58.8216 20.8397C58.2688 21.0077 57.6735 20.7076 57.4907 20.1596C53.5834 8.44511 42.5279 0 29.5 0C13.2076 0 0 13.2076 0 29.5C0 45.3942 12.5699 58.3525 28.311 58.9765L26.7699 56.3072C26.1213 55.1837 26.2819 53.815 27.0711 52.8762C15.2346 51.6614 6 41.6586 6 29.5C6 16.5213 16.5213 6 29.5 6C39.8689 6 48.6841 12.7194 51.799 22.058C53.0321 25.7552 56.9694 27.6736 60.5662 26.5804C61.8036 26.2044 63.1225 26 64.5 26C71.9558 26 78 32.0442 78 39.5Z" fill="black"/>
<line x1="20.2719" y1="46.2485" x2="40.1922" y2="80.7515" stroke="black" stroke-width="4" stroke-linecap="round" stroke-dasharray="6 6"/>
<line x1="59.2719" y1="45.2485" x2="79.1922" y2="79.7515" stroke="black" stroke-width="4" stroke-linecap="round" stroke-dasharray="6 6"/>
<mask id="path-4-outside-1_13_65" maskUnits="userSpaceOnUse" x="35.8023" y="46" width="27" height="37" fill="black">
<rect fill="white" x="35.8023" y="46" width="27" height="37"/>
<path fill-rule="evenodd" clip-rule="evenodd" d="M51.9359 50.2914C51.8544 50.1138 51.6769 50 51.4815 50H41.4425C41.0781 50 40.8361 50.3774 40.9881 50.7086L46.3139 62.3117C46.4659 62.6429 46.2239 63.0203 45.8595 63.0203H41.3033C40.8461 63.0203 40.6287 63.5832 40.9672 63.8905L57.2939 78.7115C57.6968 79.0773 58.3114 78.6273 58.0844 78.1328L52.0035 64.8845C51.8515 64.5533 52.0935 64.1759 52.458 64.1759H57.5292C57.8936 64.1759 58.1356 63.7986 57.9836 63.4673L51.9359 50.2914Z"/>
</mask>
<path d="M57.9836 63.4673L61.6189 61.7987L57.9836 63.4673ZM52.0035 64.8845L48.3682 66.5531L52.0035 64.8845ZM57.2939 78.7115L54.6054 81.6732L57.2939 78.7115ZM58.0844 78.1328L61.7198 76.4642L58.0844 78.1328ZM40.9672 63.8905L38.2786 66.8522L40.9672 63.8905ZM51.9359 50.2914L48.3006 51.96L51.9359 50.2914ZM40.9881 50.7086L44.6235 49.04L40.9881 50.7086ZM41.4425 54H51.4815V46H41.4425V54ZM49.9492 60.6431L44.6235 49.04L37.3528 52.3772L42.6785 63.9803L49.9492 60.6431ZM41.3033 67.0203H45.8595V59.0203H41.3033V67.0203ZM59.9825 75.7499L43.6558 60.9288L38.2786 66.8522L54.6054 81.6732L59.9825 75.7499ZM48.3682 66.5531L54.4491 79.8014L61.7198 76.4642L55.6389 63.2159L48.3682 66.5531ZM57.5292 60.1759H52.458V68.1759H57.5292V60.1759ZM48.3006 51.96L54.3483 65.136L61.6189 61.7987L55.5713 48.6228L48.3006 51.96ZM57.5292 68.1759C60.8092 68.1759 62.9872 64.7797 61.6189 61.7987L54.3483 65.136C53.2841 62.8174 54.9781 60.1759 57.5292 60.1759V68.1759ZM55.6389 63.2159C56.7031 65.5344 55.009 68.1759 52.458 68.1759V60.1759C49.178 60.1759 46.9999 63.5721 48.3682 66.5531L55.6389 63.2159ZM54.6054 81.6732C58.2314 84.9648 63.7628 80.9151 61.7198 76.4642L54.4491 79.8014C52.8601 76.3395 57.1623 73.1897 59.9825 75.7499L54.6054 81.6732ZM41.3033 59.0203C37.1886 59.0203 35.232 64.0865 38.2786 66.8522L43.6558 60.9288C46.0254 63.0799 44.5036 67.0203 41.3033 67.0203V59.0203ZM42.6785 63.9803C41.6143 61.6618 43.3084 59.0203 45.8595 59.0203V67.0203C49.1394 67.0203 51.3175 63.624 49.9492 60.6431L42.6785 63.9803ZM51.4815 54C50.1137 54 48.8712 53.2032 48.3006 51.96L55.5713 48.6228C54.8376 47.0245 53.2401 46 51.4815 46V54ZM41.4425 46C38.1626 46 35.9845 49.3962 37.3528 52.3772L44.6235 49.04C45.6877 51.3585 43.9936 54 41.4425 54V46Z" fill="black" mask="url(#path-4-outside-1_13_65)"/>
</svg>
